<?xml version="1.0" standalone="no"?><!DOCTYPE svg PUBLIC "-//W3C//DTD SVG 1.1//EN" "http://www.w3.org/Graphics/SVG/1.1/DTD/svg11.dtd"><svg t="1547092954280" class="icon" style="" viewBox="0 0 1024 1024" version="1.1" xmlns="http://www.w3.org/2000/svg" p-id="1971" xmlns:xlink="http://www.w3.org/1999/xlink" width="200" height="200"><defs><style type="text/css"></style></defs><path d="M512 0C229.216 0 0 229.216 0 512c0 282.768 229.216 512 512 512 282.752 0 512-229.232 512-512C1024 229.216 794.752 0 512 0zM512 992C246.896 992 32 777.088 32 512 32 246.896 246.896 32 512 32c265.056 0 480 214.896 480 480C992 777.088 777.056 992 512 992z" p-id="1972" fill="#1afa29"></path><path d="M624.064 520.032C663.104 487.76 688 438.96 688 384.336c0-97.2-78.8-176-176-176s-176 78.8-176 176c0 54.624 24.88 103.424 63.936 135.696C305.68 562.768 240 657.456 240 767.664c0 8.848 7.168 16 16 16s16-7.152 16-16c0-104.752 67.232-193.568 160.8-226.336 23.824 12.048 50.672 18.992 79.2 18.992 28.512 0 55.376-6.944 79.2-18.992C684.768 574.112 752 662.928 752 767.664c0 8.848 7.152 16 16 16s16-7.152 16-16C784 657.456 718.32 562.768 624.064 520.032zM368 384.336c0-79.536 64.464-144 144-144s144 64.464 144 144c0 77.184-60.768 139.984-137.04 143.648-2.336-0.064-4.624-0.304-6.96-0.304s-4.64 0.24-6.96 0.304C428.768 524.32 368 461.504 368 384.336z" p-id="1973" fill="#1afa29"></path></svg>